<svg xmlns="http://www.w3.org/2000/svg" width="128" height="128" viewBox="0 0 128 128" role="img" aria-label="TradeLedger logo">
  <defs>
    <linearGradient id="g" x1="0" x2="1" y1="0" y2="1">
      <stop offset="0%" stop-color="#7c6af7"/>
      <stop offset="100%" stop-color="#a78bfa"/>
    </linearGradient>
  </defs>
  <rect width="128" height="128" rx="20" fill="url(#g)" />
  <g transform="translate(34,22) scale(0.8)" fill="#fff">
    <path d="M36.8 3.7L9.7 52.6c-1 1.8 0 4 2 4.6l18.7 5.7c2.1.6 3.4 2.8 2.8 4.9l-6.3 20.3c-.8 2.7 2.5 4.7 4.8 2.9l59.6-44.3c2.2-1.6 1.8-5.1-.7-6.2L73.5 35c-2.5-1.1-3.6-4.3-2.3-6.7L98.7 3.8c1.6-2.7-.7-6-3.9-5.5L41.9 7.2c-2.7.4-4.9 2.7-5.1 5.5z"/>
  </g>
</svg>
